<?xml version="1.0" standalone="no"?>
<!DOCTYPE svg PUBLIC "-//W3C//DTD SVG 20010904//EN" "http://www.w3.org/TR/2001/REC-SVG-20010904/DTD/svg10.dtd">
<svg version="1.0" xmlns="http://www.w3.org/2000/svg" width="1024.000000pt" height="1024.000000pt"
    viewBox="0 0 1024.000000 1024.000000" preserveAspectRatio="xMidYMid meet">

    <g transform="translate(0.000000,1024.000000) scale(0.100000,-0.100000)" fill="rgb(133 77 14)" stroke="none">
        <path d="M5534 8561 c3 -22 1 -43 -5 -46 -5 -4 -6 -17 -3 -30 4 -15 -2 -41
-15 -67 -11 -24 -21 -61 -23 -83 -1 -22 -8 -52 -15 -66 -10 -21 -9 -42 6 -123
21 -108 50 -162 92 -171 15 -4 35 -15 45 -26 9 -10 23 -19 31 -19 7 0 24 -7
36 -14 12 -8 46 -17 76 -19 45 -4 54 -2 58 14 4 14 10 16 28 9 21 -8 25 -4 45
42 21 49 21 52 5 127 -9 42 -32 108 -51 146 -43 88 -128 203 -159 215 -13 5
-29 19 -35 30 -16 30 -79 99 -102 111 -17 9 -18 7 -14 -30z" />
        <path d="M4557 8469 c-34 -28 -37 -29 -37 -10 0 34 -20 34 -56 0 -29 -28 -36
-31 -45 -19 -8 12 -17 7 -49 -30 -22 -25 -46 -60 -52 -78 -8 -22 -21 -35 -38
-39 -35 -9 -79 -43 -74 -58 3 -6 -2 -18 -11 -25 -8 -7 -15 -18 -15 -25 0 -7
-13 -28 -29 -48 -35 -45 -54 -109 -48 -167 l4 -45 72 -1 c66 0 71 1 65 19 -5
16 -3 18 18 11 12 -5 50 -9 82 -9 l59 0 22 60 c17 46 29 62 51 71 16 7 35 9
42 6 11 -4 13 0 7 18 -11 35 -9 119 4 134 6 7 9 21 5 30 -3 9 -1 16 6 16 6 0
9 8 6 18 -4 10 3 36 13 58 11 22 29 64 39 92 24 61 14 66 -41 21z m-371 -516
c-7 -7 -26 7 -26 19 0 6 6 6 15 -2 9 -7 13 -15 11 -17z" />
        <path d="M4870 8383 c-117 -11 -119 -12 -130 -51 -5 -20 -10 -68 -10 -106 l0
-69 77 7 c42 3 167 6 279 6 l202 0 -10 38 c-6 20 -8 67 -4 103 6 63 5 67 -17
73 -22 6 -324 6 -387 -1z" />
        <path d="M6035 8242 c16 -40 45 -168 45 -197 0 -29 4 -33 43 -44 86 -26 315
-124 427 -183 806 -426 1354 -1232 1462 -2150 9 -78 15 -98 27 -97 9 0 57 6
106 13 l90 11 -3 60 c-2 33 -12 111 -23 174 -148 871 -656 1630 -1394 2082
-207 127 -399 216 -644 300 -116 40 -142 46 -136 31z" />
        <path d="M3845 8134 c-151 -66 -306 -148 -439 -231 -789 -490 -1315 -1305
-1438 -2228 -23 -174 -15 -731 11 -773 6 -9 30 -9 110 2 57 8 105 17 108 20 2
2 -1 48 -8 103 -18 142 -15 500 5 653 44 330 130 608 275 895 291 570 730
1005 1311 1295 47 23 86 43 88 45 1 1 7 28 12 61 5 32 25 91 44 131 19 40 32
73 28 72 -4 0 -52 -20 -107 -45z" />
        <path d="M4300 7841 c0 -6 -10 -11 -22 -11 -12 0 -41 -9 -65 -21 -31 -15 -57
-20 -93 -17 -28 1 -50 2 -50 2 0 -1 7 -15 15 -30 13 -25 13 -30 0 -44 -13 -12
-19 -12 -35 -2 -26 16 -33 15 -26 -3 4 -10 -2 -19 -17 -24 -31 -12 -53 -41
-55 -71 -2 -48 -13 -90 -23 -90 -6 0 -15 -13 -20 -30 -6 -16 -18 -30 -26 -30
-8 0 -13 -5 -11 -12 3 -7 -9 -19 -26 -28 -17 -8 -33 -24 -35 -35 -2 -11 -9
-24 -17 -28 -17 -9 -19 -43 -3 -52 7 -5 4 -14 -7 -26 -13 -15 -14 -19 -3 -19
8 0 -2 -8 -21 -18 -26 -12 -35 -24 -37 -44 -1 -15 -11 -40 -23 -56 -25 -33
-36 -147 -18 -170 8 -9 4 -20 -17 -42 -24 -25 -26 -30 -11 -30 14 0 16 -4 10
-17 -14 -31 -5 -90 21 -154 25 -58 25 -62 8 -75 -11 -8 -13 -13 -5 -14 6 0 12
-11 12 -24 0 -14 5 -28 10 -31 6 -4 8 -15 5 -26 -4 -12 -1 -21 9 -25 15 -6 56
-122 56 -158 0 -9 4 -16 9 -16 9 0 71 -96 71 -110 0 -14 85 -80 103 -80 28 0
62 -21 72 -43 9 -20 58 -43 106 -50 9 -2 24 -9 33 -16 8 -7 20 -10 26 -6 6 4
30 0 53 -9 38 -14 50 -14 110 -2 37 8 87 27 111 43 146 93 236 159 232 170 -3
7 1 16 8 20 7 5 25 27 40 51 14 23 30 42 35 42 4 0 27 19 50 43 35 35 42 47
38 72 -6 43 11 85 35 85 18 0 19 5 14 68 -3 37 -9 91 -12 120 -5 38 -3 52 6
52 9 0 7 8 -5 26 -11 17 -27 93 -44 208 -21 137 -34 196 -55 241 -55 117 -96
220 -102 255 -8 43 -36 74 -53 57 -8 -8 -11 -5 -11 14 0 37 -19 95 -38 118 -9
12 -30 24 -47 27 -16 3 -52 20 -80 37 -27 17 -63 33 -80 34 -16 1 -47 5 -67 9
-25 4 -38 2 -38 -5z m-397 -468 c-7 -2 -19 -2 -25 0 -7 3 -2 5 12 5 14 0 19
-2 13 -5z m822 -74 c11 -17 -1 -21 -15 -4 -8 9 -8 15 -2 15 6 0 14 -5 17 -11z
m5 -79 c0 -5 -4 -10 -9 -10 -6 0 -13 5 -16 10 -3 6 1 10 9 10 9 0 16 -4 16
-10z m-53 -475 c0 -8 -4 -15 -9 -15 -10 0 -11 14 -1 23 9 10 10 9 10 -8z m-99
-27 c-3 -7 -11 -13 -18 -13 -7 0 -15 6 -17 13 -3 7 4 12 17 12 13 0 20 -5 18
-12z" />
        <path d="M5587 7792 c-54 -23 -146 -50 -152 -44 -3 3 -5 -3 -5 -14 0 -19 -39
-44 -69 -44 -12 0 -17 -12 -18 -43 -1 -28 -13 -62 -36 -100 -52 -86 -56 -89
-99 -85 -43 4 -45 2 -22 -23 15 -17 15 -22 0 -65 -9 -26 -16 -58 -16 -71 0
-12 -22 -69 -49 -126 -27 -57 -53 -126 -57 -153 -10 -63 -11 -227 -2 -234 9
-7 22 -75 21 -109 -1 -13 7 -32 16 -43 28 -30 44 -93 29 -117 -9 -15 -9 -23 1
-35 10 -12 11 -19 2 -30 -9 -11 -9 -15 0 -18 6 -2 13 -19 16 -38 2 -19 12 -47
23 -62 11 -15 20 -41 20 -58 0 -32 8 -37 29 -17 10 10 20 3 54 -34 23 -25 51
-58 62 -73 10 -15 37 -37 59 -48 38 -19 40 -19 53 -2 13 18 25 15 73 -15 52
-34 165 -76 220 -84 103 -14 118 -12 145 17 17 18 34 26 59 26 30 0 37 5 52
35 9 19 20 32 26 29 26 -16 143 170 135 216 -4 19 3 32 34 58 56 48 95 131
109 230 6 45 9 86 6 91 -3 5 -8 60 -10 122 -14 387 -13 381 -57 394 -10 4 -19
11 -19 16 0 6 9 7 20 4 28 -9 25 3 -15 64 -41 61 -42 65 -15 58 30 -8 24 9
-20 54 -23 23 -59 81 -84 134 -67 142 -97 180 -169 216 -59 30 -68 32 -189 33
-91 2 -138 -2 -161 -12z m213 -217 c11 -13 10 -14 -4 -9 -9 3 -16 10 -16 15 0
13 6 11 20 -6z m7 -41 c-3 -3 -12 -4 -19 -1 -8 3 -5 6 6 6 11 1 17 -2 13 -5z
m209 -232 c-10 -2 -22 0 -28 6 -6 6 0 7 19 4 21 -5 23 -7 9 -10z" />
        <path d="M6857 7366 c-3 -8 -22 -16 -43 -18 l-37 -3 -3 -85 c-3 -73 0 -93 21
-138 14 -30 32 -95 40 -145 21 -118 35 -167 50 -167 19 0 107 -40 134 -61 24
-19 34 -17 75 14 18 13 18 17 6 47 -11 27 -11 33 1 40 7 5 11 12 7 15 -3 4 0
22 8 40 18 45 18 94 -1 101 -8 4 -15 11 -15 18 0 18 -96 163 -143 214 -43 48
-64 82 -69 116 -4 24 -24 32 -31 12z" />
        <path d="M3118 7018 c-3 -28 -8 -33 -38 -39 -19 -4 -46 -20 -61 -37 -22 -24
-26 -39 -27 -93 -1 -35 -8 -82 -16 -105 -9 -27 -11 -46 -4 -57 5 -10 6 -22 3
-28 -4 -5 -1 -16 5 -24 7 -8 10 -25 7 -37 -3 -13 0 -34 7 -47 11 -20 22 -25
65 -27 46 -2 52 0 57 21 3 13 26 36 51 52 25 15 51 40 59 55 20 38 17 109 -7
203 -11 44 -22 91 -24 105 -13 86 -15 90 -45 90 -25 0 -29 -4 -32 -32z" />
        <path d="M6895 6623 c-27 -2 -65 -11 -84 -20 -19 -9 -56 -17 -82 -18 -27 -1
-62 -11 -81 -23 -43 -27 -172 -161 -227 -235 -23 -31 -62 -80 -86 -108 -25
-27 -58 -76 -75 -109 -16 -32 -38 -61 -47 -64 -10 -3 -29 -29 -43 -57 -34 -71
-34 -69 -16 -69 24 0 28 -18 10 -46 -12 -18 -20 -59 -25 -132 -8 -116 0 -154
46 -202 20 -21 50 -88 72 -162 4 -12 12 -16 27 -13 11 2 116 14 231 25 116 11
234 25 264 30 30 6 72 10 94 10 32 0 37 3 28 14 -9 11 -4 12 32 3 54 -12 241
9 262 29 7 8 18 14 23 14 16 0 22 43 9 59 -10 12 -9 14 6 8 9 -4 17 -2 17 4 0
7 11 9 25 7 30 -6 45 10 55 60 5 20 14 52 21 70 11 26 11 36 1 50 -22 31 -25
44 -12 52 18 11 3 90 -23 118 -18 19 -18 22 -4 22 9 0 17 3 18 8 5 48 2 72
-12 102 -9 19 -24 58 -32 85 -9 28 -27 86 -42 130 -15 44 -29 96 -32 116 -6
44 -56 109 -84 109 -11 0 -24 10 -30 23 -13 28 -144 127 -153 115 0 -1 -23 -3
-51 -5z m-164 -510 c13 -16 12 -17 -3 -4 -10 7 -18 15 -18 17 0 8 8 3 21 -13z
m76 -9 c-3 -3 -12 -4 -19 -1 -8 3 -5 6 6 6 11 1 17 -2 13 -5z m73 -14 c12 -8
9 -10 -13 -10 -16 0 -26 4 -22 10 8 12 16 12 35 0z m-20 -49 c0 -4 -11 -6 -25
-3 -14 2 -25 6 -25 8 0 2 11 4 25 4 14 0 25 -4 25 -9z m315 -201 c3 -5 1 -10
-4 -10 -6 0 -11 5 -11 10 0 6 2 10 4 10 3 0 8 -4 11 -10z m-650 -130 c3 -5 -1
-10 -10 -10 -9 0 -13 5 -10 10 3 6 8 10 10 10 2 0 7 -4 10 -10z m460 -18 c-3
-3 -11 0 -18 7 -9 10 -8 11 6 5 10 -3 15 -9 12 -12z m130 -60 c-3 -3 -11 0
-18 7 -9 10 -8 11 6 5 10 -3 15 -9 12 -12z m10 -70 c-3 -3 -11 0 -18 7 -9 10
-8 11 6 5 10 -3 15 -9 12 -12z m-625 -42 c0 -5 -2 -10 -4 -10 -3 0 -8 5 -11
10 -3 6 -1 10 4 10 6 0 11 -4 11 -10z m166 -28 c-4 -3 -14 2 -24 12 -16 18
-16 18 6 6 13 -6 21 -14 18 -18z m-288 -27 c-3 -3 -9 2 -12 12 -6 14 -5 15 5
6 7 -7 10 -15 7 -18z" />
        <path d="M3146 6450 c-3 -8 -6 -26 -8 -40 -4 -33 -61 -51 -85 -27 -15 15 -22
14 -83 -19 -62 -32 -103 -75 -87 -90 3 -4 -5 -16 -20 -27 -24 -19 -62 -88 -63
-114 0 -6 11 -25 25 -41 14 -17 25 -32 25 -35 0 -2 -20 -7 -45 -9 -57 -7 -75
-22 -75 -64 0 -35 14 -50 42 -46 15 3 17 -5 14 -60 -2 -55 -7 -68 -31 -92 -20
-20 -25 -30 -15 -36 9 -6 8 -13 -4 -33 -16 -24 -16 -25 13 -50 26 -21 29 -30
24 -59 -7 -47 14 -146 35 -157 10 -6 23 -6 34 0 16 9 18 5 18 -35 0 -26 5 -46
13 -49 7 -3 6 -6 -5 -6 -23 -1 -34 -21 -17 -31 10 -7 10 -12 1 -23 -7 -8 -10
-22 -6 -30 5 -13 9 -14 25 -4 17 11 27 5 82 -53 71 -76 159 -143 222 -171 43
-19 46 -19 215 0 183 21 197 26 252 88 18 21 51 58 74 83 54 60 58 68 133 261
47 121 50 145 20 154 -18 6 -19 9 -6 23 16 18 13 66 -5 89 -5 7 -7 17 -3 23 3
5 -2 13 -12 17 -28 10 -58 47 -62 74 -1 13 -3 45 -4 71 -2 44 -4 47 -31 50
-16 2 -32 10 -36 18 -39 85 -58 114 -84 133 -59 41 -176 154 -214 206 -13 17
-30 31 -38 31 -8 0 -37 12 -64 26 -40 21 -57 25 -90 19 -22 -4 -40 -3 -40 2 0
5 -6 18 -14 29 -12 16 -15 16 -20 4z m-166 -524 c0 -3 -4 -8 -10 -11 -5 -3
-10 -1 -10 4 0 6 5 11 10 11 6 0 10 -2 10 -4z m-90 -46 c0 -5 -4 -10 -10 -10
-5 0 -10 5 -10 10 0 6 5 10 10 10 6 0 10 -4 10 -10z m531 -83 c-10 -9 -11 -8
-5 6 3 10 9 15 12 12 3 -3 0 -11 -7 -18z m-421 -47 c0 -11 -2 -20 -4 -20 -2 0
-6 9 -9 20 -3 11 -1 20 4 20 5 0 9 -9 9 -20z m27 -76 c-3 -3 -12 -4 -19 -1 -8
3 -5 6 6 6 11 1 17 -2 13 -5z m463 -104 c0 -5 -2 -10 -4 -10 -3 0 -8 5 -11 10
-3 6 -1 10 4 10 6 0 11 -4 11 -10z m-500 -249 c0 -14 -18 -23 -31 -15 -8 4 -7
9 2 15 18 11 29 11 29 0z m80 -100 c0 -5 -7 -12 -16 -15 -14 -5 -15 -4 -4 9
14 17 20 19 20 6z" />
        <path d="M5085 5888 c-44 -6 -119 -10 -166 -9 -74 1 -90 -2 -113 -20 -15 -12
-43 -22 -64 -24 -44 -3 -200 -60 -224 -82 -9 -8 -21 -12 -26 -9 -6 3 -21 -7
-35 -24 -14 -16 -27 -25 -29 -20 -3 9 -79 -55 -169 -140 -20 -19 -45 -35 -55
-35 -13 0 -30 -21 -55 -68 -39 -74 -141 -176 -202 -202 -24 -10 -36 -22 -40
-42 -3 -16 -19 -43 -36 -61 -33 -34 -39 -52 -18 -52 6 0 192 20 412 45 472 54
982 109 1523 167 l213 22 -49 29 c-26 16 -53 39 -58 51 -5 11 -16 21 -26 21
-9 0 -24 7 -35 16 -10 9 -70 44 -133 77 -96 51 -119 68 -137 101 -30 52 -100
133 -126 146 -12 5 -39 29 -60 52 -28 30 -48 43 -66 43 -15 0 -31 4 -36 9 -17
15 -106 19 -190 9z m-120 -68 c3 -5 1 -10 -4 -10 -6 0 -11 5 -11 10 0 6 2 10
4 10 3 0 8 -4 11 -10z m560 -230 c3 -5 2 -10 -4 -10 -5 0 -13 5 -16 10 -3 6
-2 10 4 10 5 0 13 -4 16 -10z m-100 -28 c-3 -3 -11 0 -18 7 -9 10 -8 11 6 5
10 -3 15 -9 12 -12z" />
        <path d="M8403 5415 c-149 -33 -277 -127 -331 -242 -24 -52 -27 -69 -27 -168
0 -103 2 -113 30 -164 57 -103 126 -134 352 -157 170 -17 208 -30 231 -77 29
-60 -27 -148 -115 -178 -22 -8 -79 -14 -133 -14 -105 0 -134 10 -203 71 -30
28 -45 34 -81 34 -28 0 -52 -7 -67 -19 -23 -18 -24 -26 -24 -124 1 -145 17
-165 166 -203 79 -20 293 -15 382 10 147 40 254 121 309 233 28 57 33 79 36
158 5 115 -13 184 -64 243 -64 75 -120 95 -339 118 -156 16 -210 32 -221 66
-16 53 27 127 90 153 51 22 139 28 201 15 44 -9 68 -21 100 -51 45 -41 93 -57
139 -45 49 12 56 29 56 143 l0 105 -33 33 c-19 19 -56 40 -88 50 -74 24 -282
29 -366 10z" />
        <path d="M7355 5285 c-55 -7 -108 -16 -117 -20 -36 -14 -42 -36 -243 -796 -58
-217 -105 -407 -105 -421 0 -46 19 -52 126 -39 53 6 105 16 115 22 28 15 45
55 64 151 10 49 25 94 34 102 22 19 318 51 336 36 7 -6 23 -51 35 -100 31
-125 33 -126 172 -112 71 7 117 17 126 26 13 13 -6 84 -142 553 -86 296 -165
554 -174 573 -16 33 -20 35 -72 36 -30 1 -100 -4 -155 -11z m56 -322 c6 -16
30 -104 55 -198 34 -134 41 -172 31 -181 -15 -14 -198 -37 -209 -26 -8 8 73
367 92 410 13 29 18 28 31 -5z" />
        <path d="M6500 5194 c-168 -18 -328 -36 -356 -39 -80 -9 -88 -20 -92 -114 -7
-149 4 -159 161 -136 93 13 103 13 115 -2 9 -13 12 -124 12 -475 l0 -458 23
-14 c33 -21 223 1 243 29 12 15 14 102 14 486 0 437 1 468 18 473 9 3 67 10
127 16 61 6 120 17 131 25 12 8 24 29 28 47 9 50 -8 178 -25 189 -21 13 -63
10 -399 -27z" />
        <path d="M5690 5100 c-98 -15 -91 33 -88 -631 3 -514 5 -580 19 -594 14 -14
28 -15 125 -5 87 10 112 16 127 32 16 19 17 62 17 595 0 377 -4 581 -10 594
-9 16 -21 19 -73 18 -34 -1 -87 -5 -117 -9z" />
        <path d="M4766 4999 c-38 -5 -75 -14 -83 -20 -18 -16 -20 -1188 -1 -1207 7 -7
28 -12 48 -12 49 0 644 68 664 76 28 11 36 39 36 126 0 132 14 126 -241 101
-144 -14 -218 -17 -226 -11 -10 8 -13 121 -15 482 l-3 471 -55 1 c-30 1 -86
-2 -124 -7z" />
        <path d="M4024 4921 c-215 -24 -337 -41 -348 -50 -14 -12 -16 -72 -16 -607 l0
-594 23 -13 c19 -13 68 -9 387 25 434 47 410 37 410 169 0 66 -3 82 -20 99
-24 24 -9 25 -274 -5 -121 -13 -223 -22 -228 -19 -4 3 -8 57 -8 120 0 109 1
115 23 124 12 5 114 19 227 30 193 20 206 23 228 46 19 22 22 36 22 105 0 44
-5 89 -10 100 -13 24 -30 24 -250 -1 -96 -11 -190 -20 -207 -20 l-33 0 0 110
c0 105 1 110 23 115 12 3 123 16 246 30 167 18 228 28 240 40 21 21 23 194 2
219 -18 22 -44 20 -437 -23z" />
        <path d="M3266 4839 c-38 -5 -75 -14 -83 -20 -10 -9 -13 -89 -13 -408 0 -498
-7 -542 -91 -598 -31 -20 -55 -27 -112 -31 -91 -6 -127 11 -159 71 -23 41 -23
50 -28 467 -3 234 -9 431 -13 438 -17 26 -242 6 -265 -25 -21 -28 -11 -823 12
-911 64 -246 253 -336 565 -266 188 42 316 171 356 359 19 93 22 904 3 923
-14 14 -70 14 -172 1z" />
        <path d="M2140 4708 c-139 -15 -130 5 -130 -288 0 -250 0 -250 -22 -260 -22
-9 -289 -40 -343 -40 l-25 0 0 235 c0 225 -1 236 -21 256 -16 16 -29 19 -52
15 -18 -3 -65 -8 -104 -12 -120 -11 -108 55 -106 -620 1 -370 5 -590 12 -597
6 -6 49 -7 115 -2 158 10 150 -3 156 252 l5 208 95 12 c52 7 138 14 190 15
l95 3 5 -202 c3 -136 9 -206 17 -214 14 -14 229 6 251 23 17 15 18 1198 0
1216 -13 13 -17 13 -138 0z" />
        <path d="M6855 3780 c-676 -76 -1734 -195 -2350 -264 -1895 -212 -2198 -247
-2243 -254 l-42 -7 61 -98 62 -99 56 7 c31 3 351 39 711 81 804 92 1422 162
2290 260 366 41 1045 117 1510 170 465 52 917 103 1005 112 l160 18 32 99 c17
55 32 103 32 108 1 4 -11 7 -26 6 -16 -1 -581 -63 -1258 -139z" />
        <path d="M7676 3443 c-11 -12 -7 -115 5 -107 7 4 9 21 6 40 -7 42 9 36 18 -6
9 -39 22 -38 34 3 l9 32 1 -32 c2 -57 21 -36 21 22 0 41 -4 55 -15 55 -8 0
-17 -14 -21 -35 -8 -43 -20 -45 -29 -5 -7 31 -18 44 -29 33z" />
        <path d="M7603 3428 c9 -8 18 -32 20 -58 l4 -45 1 52 c1 30 7 53 15 56 6 3 -3
6 -22 6 -30 1 -33 -1 -18 -11z" />
        <path d="M7371 3419 c-86 -10 -101 -20 -138 -98 -14 -31 -50 -107 -80 -170
-47 -101 -55 -113 -68 -100 -8 8 -44 73 -79 144 -34 72 -70 136 -80 144 -13
11 -37 12 -109 7 -132 -10 -161 -17 -165 -44 -2 -13 48 -114 132 -265 92 -164
136 -253 136 -273 0 -19 -51 -136 -135 -307 -134 -272 -154 -330 -120 -343 29
-12 208 15 235 34 17 13 50 76 101 191 42 94 80 176 86 182 14 14 34 -16 116
-172 37 -69 76 -134 87 -144 17 -16 31 -17 122 -10 124 8 148 16 148 49 0 13
-65 138 -145 277 -90 157 -145 264 -145 281 0 16 62 153 142 311 89 180 139
290 135 300 -7 19 -50 20 -176 6z" />
        <path d="M5995 3259 c-109 -12 -119 -18 -144 -83 -16 -43 -288 -1027 -314
-1134 -8 -33 26 -65 61 -58 15 3 58 8 95 11 97 9 112 25 143 150 14 55 31 106
38 113 7 7 77 19 171 28 185 19 175 24 195 -84 15 -81 33 -118 60 -127 26 -8
177 4 212 17 15 5 29 17 32 25 8 21 -311 1113 -331 1135 -18 20 -78 22 -218 7z
m107 -490 c26 -101 48 -190 48 -197 0 -18 -35 -29 -127 -37 -78 -7 -83 -6 -83
12 0 18 73 354 86 396 13 42 31 0 76 -174z" />
        <path d="M5266 3181 c-76 -8 -83 -17 -250 -289 -71 -116 -133 -209 -138 -206
-4 3 -8 97 -8 208 0 170 -2 206 -15 216 -12 10 -39 11 -128 2 -94 -10 -115
-15 -129 -33 -17 -20 -18 -63 -18 -589 0 -681 -14 -619 137 -602 55 6 107 14
115 17 31 12 38 55 38 240 0 192 9 247 35 225 8 -6 71 -99 140 -205 95 -145
134 -196 156 -205 23 -10 53 -10 142 0 111 12 137 21 137 45 0 7 -76 127 -169
267 -198 299 -194 292 -185 321 4 12 79 136 166 276 164 261 178 287 171 309
-5 13 -89 14 -197 3z" />
        <path d="M3944 3021 c-210 -23 -327 -41 -338 -50 -14 -12 -16 -67 -16 -596 0
-513 2 -584 15 -595 13 -11 80 -6 368 24 194 21 365 42 380 48 37 14 47 43 47
128 0 52 -4 73 -19 91 l-19 23 -233 -25 c-129 -14 -240 -24 -246 -21 -9 3 -13
36 -13 117 0 95 3 114 16 119 9 4 98 15 198 26 252 28 244 26 267 63 17 27 20
44 16 104 -2 40 -10 79 -17 88 -17 20 -68 19 -285 -5 -98 -11 -182 -17 -186
-14 -13 7 -11 201 1 209 9 5 422 55 458 55 7 0 24 11 37 25 22 21 25 33 25
102 0 105 -13 123 -83 122 -29 -1 -196 -17 -373 -38z" />
        <path d="M2960 2908 c-421 -47 -400 -38 -400 -163 0 -79 13 -121 39 -128 9 -2
67 2 130 9 63 7 118 11 123 8 4 -3 8 -209 8 -458 0 -551 -13 -504 141 -486 66
7 110 17 122 27 16 15 17 51 17 473 0 350 3 460 13 472 8 11 44 19 127 27 150
16 155 20 155 140 0 108 -9 121 -74 120 -25 -1 -206 -19 -401 -41z" />
    </g>
</svg>